<svg xmlns="http://www.w3.org/2000/svg" viewBox="0 0 35.58 48.29"><defs><style>.cls-1{fill:#539fc6;}</style></defs><title>Asset 1</title><g id="Layer_2" data-name="Layer 2"><g id="Layer_1-2" data-name="Layer 1"><path class="cls-1" d="M35.58,13.85V40.16c0,1.33-1.15,2-2.54,2.95a1.66,1.66,0,0,1-2.54-1.49V15.91a1.41,1.41,0,0,0-.8-1.36L10,4.22a3.6,3.6,0,0,0-3.44,0A7.21,7.21,0,0,0,3.73,6.45L24.53,17.84a1.48,1.48,0,0,1,.89,1.31V46.61a1.7,1.7,0,0,1-.94,1.49,1.9,1.9,0,0,1-.85.2,1.87,1.87,0,0,1-1-.26c-.55-.33-19.76-12.11-21-12.88C1,34.78.3,34,.29,33.48L0,7.33A4.21,4.21,0,0,1,.74,4.71C2.51,2,8.69-1.18,11.82.45L34.69,12A1.85,1.85,0,0,1,35.58,13.85Z"/></g></g></svg>