<svg xmlns="http://www.w3.org/2000/svg" viewBox="0 0 39.74 39.74"><defs><style>.cls-1{fill:#539fc6;}</style></defs><title>review</title><g id="Layer_2" data-name="Layer 2"><g id="Layer_1-2" data-name="Layer 1"><path class="cls-1" d="M37.93,1.81C35.5-.62,33.33.1,33.33.1L14.25,19.16,11,28.7l9.53-3.21L39.64,6.41S40.36,4.25,37.93,1.81ZM21.21,23.41l-1,1-3.25,1.1a5.13,5.13,0,0,0-2.73-2.73l1.1-3.25,1-1A4.46,4.46,0,0,1,19.72,20,4.47,4.47,0,0,1,21.21,23.41ZM33.13,35.33H4.42V6.62h11L19.88,2.2H4.42A4.43,4.43,0,0,0,0,6.62V35.33a4.43,4.43,0,0,0,4.42,4.42H33.13a4.43,4.43,0,0,0,4.42-4.42V19.87l-4.42,4.42Z"/></g></g></svg>