<svg xmlns="http://www.w3.org/2000/svg" viewBox="0 0 30.17 30.17"><defs><style>.cls-1{fill:#d6d6d6;}</style></defs><title>search</title><g id="Layer_2" data-name="Layer 2"><g id="Layer_1-2" data-name="Layer 1"><path class="cls-1" d="M29.49,25.52l-7.22-7.22A11.74,11.74,0,0,0,24,12.18,12.45,12.45,0,0,0,11.81,0,11.81,11.81,0,0,0,0,11.81,12.45,12.45,0,0,0,12.18,24a11.74,11.74,0,0,0,5.95-1.61l7.25,7.26a1.82,1.82,0,0,0,2.57,0l1.8-1.8C30.46,27.13,30.2,26.23,29.49,25.52ZM3.64,11.81a8.18,8.18,0,0,1,8.18-8.18,8.81,8.81,0,0,1,8.54,8.54,8.18,8.18,0,0,1-8.18,8.18A8.81,8.81,0,0,1,3.64,11.81Z"/></g></g></svg>